<?xml version="1.0" encoding="utf-8"?>
<!-- Generator: Adobe Illustrator 27.2.0, SVG Export Plug-In . SVG Version: 6.00 Build 0)  -->
<svg version="1.2" baseProfile="tiny" id="Слой_1"
	 xmlns="http://www.w3.org/2000/svg" xmlns:xlink="http://www.w3.org/1999/xlink" x="0px" y="0px" viewBox="0 0 595.28 841.89"
	 overflow="visible" xml:space="preserve">
<path fill="#DC5A54" d="M440.63,504.7c14,68.13,30.04,135.86,38.57,205.04c2.62,21.28,1.84,42.53,2.81,63.78
	c0.8,17.37-9.21,27.56-23.42,33.06c-26.85,10.38-55.51,10.43-83.1,5.98c-18.27-2.94-32.67-16.5-39.93-34.72
	c-5.35-13.44-9.42-27.39-13.99-41.14c-7.35-22.1-13.06-45.82-46.69-41.39c-4.64,19.39-9.62,41.56-15.29,63.56
	c-8.34,32.36-26.33,47.43-59.59,48.98c-18.32,0.85-36.67,0.85-54.88-3.63c-31.71-7.81-39.67-18.78-38.38-50.63
	c2.53-62.4,18.01-122.16,34.31-181.94c6.27-23,15.1-45.64,16.74-72.2c-15.91,5.16-22.48,17.61-30.18,27.66
	c-13.03,17.01-30.47,28.16-46.97,40.88c-7.96,6.14-15.22,7.39-24.09,5.03c-43-11.46-66.47-61.23-47.71-102.09
	c13.8-30.04,36.9-51.62,64.74-68.59c34.36-20.94,72.68-30.31,111.54-37.81c5.99-1.16,10.88-3.25,15.67-6.89
	c0.87-8.19-6.51-10.85-11.13-15.09c-13.61-12.5-24.64-27.11-35.82-41.67C90.49,218.36,135.78,61.72,260.67,34.03
	c75.1-16.65,135.43,9.46,181.76,67.94c46.09,58.17,49.15,121.8,16.39,187.76c-13.96,28.11-35.21,50.5-60.11,73.77
	c22.7,6.76,42.29,13.17,62.19,18.41c43.46,11.45,79.08,35.12,108.66,68.39c18.24,20.52,26.48,44.45,24.41,72.14
	c-2.16,28.81-23.43,53.6-51.5,58.64c-10.94,1.96-20.84-0.01-30.42-6.14c-14.14-9.05-24.79-21.22-35.24-34.1
	c-10.75-13.25-18.23-30.14-36.25-36.22c0,0.01-0.74-0.61-0.74-0.61L440.63,504.7z"/>
</svg>
